<svg id="visual" viewBox="0 0 900 600" width="900" height="600" xmlns="http://www.w3.org/2000/svg" xmlns:xlink="http://www.w3.org/1999/xlink" version="1.1"><rect width="900" height="600" fill="#6600FF"></rect><g><g transform="translate(302 211)"><path d="M18 9.4C13.3 18.5 -7.5 17.4 -13.1 7.8C-18.8 -1.9 -9.4 -20.1 1 -19.6C11.3 -19 22.7 0.3 18 9.4Z" stroke="#ece31e" fill="none" stroke-width="20"></path></g><g transform="translate(615 430)"><path d="M11.7 6.4C7.5 14.1 -8.9 14.4 -12.9 6.8C-16.9 -0.7 -8.5 -16.1 -0.2 -16.2C8 -16.4 15.9 -1.3 11.7 6.4Z" stroke="#ece31e" fill="none" stroke-width="20"></path></g><g transform="translate(856 163)"><path d="M14.8 9C10 16.8 -9.4 16.7 -14.3 8.8C-19.2 0.9 -9.6 -14.8 0.1 -14.7C9.8 -14.6 19.6 1.2 14.8 9Z" stroke="#ece31e" fill="none" stroke-width="20"></path></g><g transform="translate(726 310)"><path d="M11.3 5.6C7.2 13.6 -8.6 13.8 -12.4 6C-16.3 -1.9 -8.1 -17.9 -0.2 -18C7.7 -18.2 15.4 -2.4 11.3 5.6Z" stroke="#ece31e" fill="none" stroke-width="20"></path></g><g transform="translate(626 50)"><path d="M8.9 6.1C4.9 12.1 -9.6 13 -12.8 7.5C-16 1.9 -8 -10 -0.8 -10.4C6.4 -10.9 12.9 0.1 8.9 6.1Z" stroke="#ece31e" fill="none" stroke-width="20"></path></g><g transform="translate(152 142)"><path d="M13.6 8.6C8.2 17.2 -12.1 18 -16.9 9.7C-21.6 1.5 -10.8 -15.7 -0.7 -16C9.5 -16.4 19 0 13.6 8.6Z" stroke="#ece31e" fill="none" stroke-width="20"></path></g><g transform="translate(501 592)"><path d="M9.5 5.1C6.3 10.9 -6.3 10.9 -9.4 5.1C-12.6 -0.7 -6.3 -12.3 0 -12.3C6.3 -12.3 12.6 -0.7 9.5 5.1Z" stroke="#ece31e" fill="none" stroke-width="20"></path></g><g transform="translate(138 315)"><path d="M9 5.3C5.9 10.6 -6.5 10.7 -9.5 5.5C-12.5 0.2 -6.3 -10.4 -0.1 -10.5C6.1 -10.5 12.1 0 9 5.3Z" stroke="#ece31e" fill="none" stroke-width="20"></path></g><g transform="translate(7 472)"><path d="M14.3 8.1C10.2 15.4 -7.3 14.9 -11.9 7.2C-16.5 -0.4 -8.3 -15.2 0.5 -14.9C9.2 -14.6 18.5 0.7 14.3 8.1Z" stroke="#ece31e" fill="none" stroke-width="20"></path></g><g transform="translate(269 446)"><path d="M17 8.9C12.8 17.1 -6.1 15.8 -11.4 7C-16.7 -1.8 -8.4 -18.1 1.1 -17.5C10.6 -16.8 21.2 0.8 17 8.9Z" stroke="#ece31e" fill="none" stroke-width="20"></path></g><g transform="translate(571 178)"><path d="M16.1 10.1C10.9 18.2 -10 18 -15.3 9.9C-20.6 1.7 -10.3 -14.4 0.2 -14.3C10.6 -14.2 21.2 2.1 16.1 10.1Z" stroke="#ece31e" fill="none" stroke-width="20"></path></g><g transform="translate(168 400)"><path d="M9.2 5.3C6.1 10.8 -6.5 10.9 -9.6 5.5C-12.7 0 -6.3 -11 -0.1 -11C6.2 -11 12.4 -0.2 9.2 5.3Z" stroke="#ece31e" fill="none" stroke-width="20"></path></g><g transform="translate(622 250)"><path d="M12.3 7.5C8.7 13.3 -6.5 12.9 -10.4 6.9C-14.4 0.9 -7.2 -10.7 0.4 -10.5C7.9 -10.3 15.9 1.7 12.3 7.5Z" stroke="#ece31e" fill="none" stroke-width="20"></path></g><g transform="translate(535 5)"><path d="M7.7 4C5.3 8.6 -4.5 8.5 -7 3.8C-9.6 -0.9 -4.8 -10.1 0.1 -10C5.1 -9.9 10.1 -0.6 7.7 4Z" stroke="#ece31e" fill="none" stroke-width="20"></path></g><g transform="translate(756 180)"><path d="M7.1 3.8C4.8 8.2 -4.7 8.2 -7.1 3.8C-9.5 -0.7 -4.7 -9.6 0 -9.6C4.8 -9.6 9.5 -0.7 7.1 3.8Z" stroke="#ece31e" fill="none" stroke-width="20"></path></g><g transform="translate(57 55)"><path d="M13.8 8.7C9.1 16.1 -9.5 16.1 -14.1 8.8C-18.7 1.6 -9.3 -13.1 -0.1 -13.1C9.2 -13.1 18.5 1.4 13.8 8.7Z" stroke="#ece31e" fill="none" stroke-width="20"></path></g><g transform="translate(47 177)"><path d="M11.4 5.8C8.1 12.4 -5.9 12 -9.6 5.2C-13.3 -1.6 -6.7 -14.6 0.4 -14.4C7.4 -14.2 14.8 -0.7 11.4 5.8Z" stroke="#ece31e" fill="none" stroke-width="20"></path></g><g transform="translate(822 395)"><path d="M11.1 6.1C8 11.8 -5.4 11.4 -9 5.4C-12.5 -0.6 -6.3 -12.1 0.4 -11.9C7.1 -11.6 14.2 0.4 11.1 6.1Z" stroke="#ece31e" fill="none" stroke-width="20"></path></g><g transform="translate(277 342)"><path d="M13.9 8.5C9.6 15.6 -8.3 15.3 -12.8 8.1C-17.4 0.9 -8.7 -13.4 0.2 -13.2C9.1 -13.1 18.3 1.3 13.9 8.5Z" stroke="#ece31e" fill="none" stroke-width="20"></path></g><g transform="translate(336 11)"><path d="M11.3 6.4C7.5 13 -7.4 12.9 -11.2 6.4C-14.9 -0.1 -7.4 -13.1 0 -13.1C7.5 -13.1 15 -0.1 11.3 6.4Z" stroke="#ece31e" fill="none" stroke-width="20"></path></g><g transform="translate(463 417)"><path d="M10.2 5.1C7 11.5 -6.2 11.3 -9.5 4.9C-12.9 -1.5 -6.4 -14.3 0.1 -14.2C6.7 -14.1 13.4 -1.2 10.2 5.1Z" stroke="#ece31e" fill="none" stroke-width="20"></path></g><g transform="translate(774 524)"><path d="M9.6 5.6C6.2 11.4 -7.1 11.6 -10.3 5.8C-13.6 0 -6.8 -11.8 -0.1 -11.9C6.5 -12 13 -0.3 9.6 5.6Z" stroke="#ece31e" fill="none" stroke-width="20"></path></g><g transform="translate(237 539)"><path d="M10.6 6.2C6 14 -10.7 14.9 -14.4 7.6C-18.2 0.3 -9.1 -15.2 -0.8 -15.6C7.6 -16.1 15.1 -1.5 10.6 6.2Z" stroke="#ece31e" fill="none" stroke-width="20"></path></g><g transform="translate(400 287)"><path d="M11.2 6.8C7.3 13.3 -8.1 13.4 -11.9 7.1C-15.7 0.7 -7.8 -12.1 -0.1 -12.2C7.6 -12.3 15.1 0.4 11.2 6.8Z" stroke="#ece31e" fill="none" stroke-width="20"></path></g><g transform="translate(86 453)"><path d="M17.4 9.8C13 17.8 -6.9 16.7 -12.4 8C-17.9 -0.6 -9 -16.7 1 -16.1C11 -15.5 21.9 1.7 17.4 9.8Z" stroke="#ece31e" fill="none" stroke-width="20"></path></g><g transform="translate(887 506)"><path d="M7.3 4.6C4.5 9.1 -6.2 9.4 -8.7 5.1C-11.3 0.8 -5.6 -8.1 -0.3 -8.3C5.1 -8.4 10.2 0.2 7.3 4.6Z" stroke="#ece31e" fill="none" stroke-width="20"></path></g><g transform="translate(77 563)"><path d="M16.5 10.4C11.1 18.8 -10.5 18.7 -16 10.2C-21.5 1.8 -10.7 -15.1 0.1 -15C10.9 -15 21.8 2 16.5 10.4Z" stroke="#ece31e" fill="none" stroke-width="20"></path></g><g transform="translate(433 126)"><path d="M14.5 8.1C9.9 16.3 -8.7 16.1 -13.5 7.7C-18.3 -0.6 -9.1 -17 0.2 -16.9C9.5 -16.8 19.1 -0.1 14.5 8.1Z" stroke="#ece31e" fill="none" stroke-width="20"></path></g></g></svg>
