<svg id="visual" viewBox="0 0 900 600" width="900" height="600" xmlns="http://www.w3.org/2000/svg" xmlns:xlink="http://www.w3.org/1999/xlink" version="1.1"><g><g transform="translate(452 306)"><path d="M79.6 -91.8C103.7 -74.6 124.2 -50.1 131.4 -21.3C138.7 7.4 132.8 40.3 117 67.6C101.3 94.8 75.8 116.4 48.2 121.9C20.7 127.3 -8.9 116.5 -37.5 105.2C-66 93.8 -93.6 81.9 -111.1 60C-128.7 38.1 -136.3 6.4 -130.7 -22.6C-125.1 -51.6 -106.2 -77.8 -82.2 -95C-58.2 -112.2 -29.1 -120.5 -0.7 -119.7C27.7 -118.9 55.5 -109 79.6 -91.8Z" fill="#6600FF"></path></g><g transform="translate(739 163)"><path d="M57.7 -65.8C76.2 -53.2 93.6 -36.4 99.9 -15.4C106.3 5.6 101.6 30.8 88.5 48.9C75.4 67.1 54 78.2 31.9 85.1C9.9 92.1 -12.8 94.8 -32.7 88.2C-52.5 81.7 -69.6 65.9 -79.2 46.9C-88.9 27.9 -91 5.7 -86.2 -14C-81.3 -33.7 -69.3 -51.1 -53.8 -64.2C-38.2 -77.3 -19.1 -86.2 0.2 -86.5C19.6 -86.8 39.2 -78.4 57.7 -65.8Z" fill="#6600FF"></path></g><g transform="translate(151 196)"><path d="M38.8 -48C49 -37.7 55 -24.2 58.3 -9.7C61.5 4.9 62.1 20.5 56.3 34.3C50.5 48.1 38.3 59.9 24.2 64.1C10 68.2 -6.1 64.7 -19.5 57.9C-32.8 51.1 -43.3 41.1 -52.1 28.7C-60.9 16.3 -67.9 1.6 -65.8 -11.8C-63.7 -25.1 -52.4 -37.1 -39.9 -47C-27.4 -56.8 -13.7 -64.6 0.3 -65C14.3 -65.4 28.7 -58.3 38.8 -48Z" fill="#6600FF"></path></g></g></svg>