<svg id="visual" viewBox="0 0 900 600" width="900" height="600" xmlns="http://www.w3.org/2000/svg" xmlns:xlink="http://www.w3.org/1999/xlink" version="1.1"><path d="M0 115L12.5 115C25 115 50 115 75 118.2C100 121.3 125 127.7 150 129.8C175 132 200 130 225 126C250 122 275 116 300 113C325 110 350 110 375 114.2C400 118.3 425 126.7 450 126.2C475 125.7 500 116.3 525 116C550 115.7 575 124.3 600 128.2C625 132 650 131 675 131.5C700 132 725 134 750 132.8C775 131.7 800 127.3 825 125.2C850 123 875 123 887.5 123L900 123L900 0L887.5 0C875 0 850 0 825 0C800 0 775 0 750 0C725 0 700 0 675 0C650 0 625 0 600 0C575 0 550 0 525 0C500 0 475 0 450 0C425 0 400 0 375 0C350 0 325 0 300 0C275 0 250 0 225 0C200 0 175 0 150 0C125 0 100 0 75 0C50 0 25 0 12.5 0L0 0Z" fill="#6600ff"></path><path d="M0 69L12.5 71.2C25 73.3 50 77.7 75 80.8C100 84 125 86 150 83.7C175 81.3 200 74.7 225 74C250 73.3 275 78.7 300 82.7C325 86.7 350 89.3 375 86.7C400 84 425 76 450 74.5C475 73 500 78 525 81C550 84 575 85 600 86C625 87 650 88 675 87.2C700 86.3 725 83.7 750 83.3C775 83 800 85 825 85.7C850 86.3 875 85.7 887.5 85.3L900 85L900 0L887.5 0C875 0 850 0 825 0C800 0 775 0 750 0C725 0 700 0 675 0C650 0 625 0 600 0C575 0 550 0 525 0C500 0 475 0 450 0C425 0 400 0 375 0C350 0 325 0 300 0C275 0 250 0 225 0C200 0 175 0 150 0C125 0 100 0 75 0C50 0 25 0 12.5 0L0 0Z" fill="#6940fa"></path><path d="M0 47L12.5 44.7C25 42.3 50 37.7 75 35.2C100 32.7 125 32.3 150 33C175 33.7 200 35.3 225 37.3C250 39.3 275 41.7 300 44.7C325 47.7 350 51.3 375 50.8C400 50.3 425 45.7 450 41.8C475 38 500 35 525 35C550 35 575 38 600 39.8C625 41.7 650 42.3 675 41.7C700 41 725 39 750 37.5C775 36 800 35 825 38C850 41 875 48 887.5 51.5L900 55L900 0L887.5 0C875 0 850 0 825 0C800 0 775 0 750 0C725 0 700 0 675 0C650 0 625 0 600 0C575 0 550 0 525 0C500 0 475 0 450 0C425 0 400 0 375 0C350 0 325 0 300 0C275 0 250 0 225 0C200 0 175 0 150 0C125 0 100 0 75 0C50 0 25 0 12.5 0L0 0Z" fill="#715df2"></path></svg>