<svg viewBox="0 0 200 200" xmlns="http://www.w3.org/2000/svg">
  <path fill="#4a148c" d="M11.5,-17.3C22.3,-13.8,43.5,-25.6,53.4,-25.2C63.3,-24.9,62,-12.4,55.8,-3.6C49.5,5.2,38.4,10.5,31.8,16.6C25.2,22.6,23.1,29.5,18.6,27.8C14,26.1,7,15.8,-1.1,17.6C-9.1,19.4,-18.2,33.4,-19.1,33C-20,32.6,-12.6,17.8,-21.9,9.9C-31.2,2,-57.3,1,-62.5,-3C-67.7,-7,-52.1,-14.1,-46.2,-27.8C-40.2,-41.5,-43.9,-62,-37.8,-68.1C-31.7,-74.3,-15.9,-66.3,-7.7,-52.9C0.4,-39.5,0.8,-20.7,11.5,-17.3Z" transform="translate(100 100)" />
</svg>