<svg xmlns="http://www.w3.org/2000/svg" version="1.1" xmlns:xlink="http://www.w3.org/1999/xlink" xmlns:svgjs="http://svgjs.com/svgjs" width="440" height="360" preserveAspectRatio="none" viewBox="0 0 440 360"><g mask="url(&quot;#SvgjsMask1032&quot;)" fill="none"><path d="M123.292,430.354C145.082,430.39,161.791,412.333,171.287,392.721C179.573,375.607,176.702,356.13,167.204,339.658C157.695,323.168,142.29,310.68,123.292,309.487C102.019,308.152,79.282,314.99,68.665,333.473C58.078,351.903,65.128,374.05,75.567,392.565C86.249,411.509,101.544,430.318,123.292,430.354" fill="rgba(102, 11, 146, 1)" class="triangle-float3"></path><path d="M247.21,256.313C272.102,256.504,296.68,245.487,308.807,223.748C320.669,202.484,315.093,177.104,303.268,155.819C291.016,133.765,272.418,111.842,247.21,112.874C223.009,113.864,210.174,138.842,198.573,160.104C187.668,180.092,176.953,202.497,187.225,222.817C198.299,244.722,222.666,256.125,247.21,256.313" fill="rgba(102, 11, 146, 1)" class="triangle-float2"></path><path d="M388.269,61.273C404.518,61.276,414.118,45.053,422.144,30.924C430.03,17.041,437.576,1.301,430.453,-12.989C422.714,-28.514,405.616,-37.11,388.269,-37.033C371.054,-36.957,354.403,-28.027,346.726,-12.619C339.683,1.517,346.675,17.144,354.415,30.911C362.377,45.072,372.023,61.27,388.269,61.273" fill="rgba(102, 11, 146, 1)" class="triangle-float2"></path><path d="M107.79,242.473C144.307,242.054,168.299,208.312,185.549,176.124C201.602,146.17,209.71,111.585,194.121,81.387C177.267,48.738,144.526,24.758,107.79,25.493C72.076,26.207,43.985,53.171,27.239,84.724C11.626,114.142,11.734,148.282,26.88,177.943C43.695,210.872,70.818,242.897,107.79,242.473" fill="rgba(102, 11, 146, 1)" class="triangle-float2"></path></g><defs><mask id="SvgjsMask1032"><rect width="440" height="360" fill="#ffffff"></rect></mask><style>
            @keyframes float1 {
                0%{transform: translate(0, 0)}
                50%{transform: translate(-10px, 0)}
                100%{transform: translate(0, 0)}
            }

            .triangle-float1 {
                animation: float1 5s infinite;
            }

            @keyframes float2 {
                0%{transform: translate(0, 0)}
                50%{transform: translate(-5px, -5px)}
                100%{transform: translate(0, 0)}
            }

            .triangle-float2 {
                animation: float2 4s infinite;
            }

            @keyframes float3 {
                0%{transform: translate(0, 0)}
                50%{transform: translate(0, -10px)}
                100%{transform: translate(0, 0)}
            }

            .triangle-float3 {
                animation: float3 6s infinite;
            }
        </style></defs></svg>