<svg xmlns="http://www.w3.org/2000/svg" version="1.1" xmlns:xlink="http://www.w3.org/1999/xlink" xmlns:svgjs="http://svgjs.com/svgjs" width="416.5" height="583" preserveAspectRatio="none" viewBox="0 0 1440 560"><g mask="url(&quot;#SvgjsMask1006&quot;)" fill="none"><path d="M 0,178 C 57.6,160.2 172.8,73.8 288,89 C 403.2,104.2 460.8,271.8 576,254 C 691.2,236.2 748.8,0.6 864,0 C 979.2,-0.6 1036.8,244.8 1152,251 C 1267.2,257.2 1382.4,75 1440,31L1440 560L0 560z" fill="rgba(90, 61, 186, 1)"></path><path d="M 0,401 C 96,412.2 288,466.2 480,457 C 672,447.8 768,353.4 960,355 C 1152,356.6 1344,443 1440,465L1440 560L0 560z" fill="rgba(130, 132, 216, 1)"></path></g><defs><mask id="SvgjsMask1006"><rect width="1440" height="560" fill="#ffffff"></rect></mask></defs></svg>